<?xml version="1.0" standalone="no"?>
<!DOCTYPE svg PUBLIC "-//W3C//DTD SVG 20010904//EN"
 "http://www.w3.org/TR/2001/REC-SVG-20010904/DTD/svg10.dtd">
<svg version="1.0" xmlns="http://www.w3.org/2000/svg"
 width="300.000000pt" height="300.000000pt" viewBox="0 0 300.000000 300.000000"
 preserveAspectRatio="xMidYMid meet">
<metadata>
Created by potrace 1.14, written by Peter Selinger 2001-2017
</metadata>
<g transform="translate(0.000000,300.000000) scale(0.100000,-0.100000)"
fill="#000000" stroke="none">
<path d="M908 2946 c-31 -13 -74 -37 -95 -54 -21 -17 -192 -185 -380 -374
-294 -295 -346 -351 -370 -403 l-28 -60 0 -555 0 -555 28 -60 c24 -52 78 -110
390 -423 317 -317 370 -367 427 -395 l65 -32 555 0 555 0 60 28 c52 24 109 77
427 395 318 318 371 375 395 427 l28 60 0 555 0 555 -28 60 c-24 52 -77 109
-395 427 -318 318 -375 371 -427 395 l-60 28 -545 2 -545 3 -57 -24z m1200
-748 c9 -9 12 -181 12 -714 l0 -703 -22 -15 c-34 -24 -133 -21 -158 4 -20 20
-20 33 -20 712 0 629 1 693 17 710 13 14 31 18 88 18 42 0 76 -5 83 -12z
m-813 -369 c259 -106 476 -199 483 -207 14 -18 17 -229 3 -250 -8 -13 -942
-402 -964 -402 -6 0 -19 7 -29 17 -15 14 -18 32 -18 134 0 87 4 121 14 132 8
7 153 60 323 117 169 56 313 108 320 114 7 6 9 16 5 22 -4 6 -146 57 -317 114
-171 56 -318 109 -327 117 -26 23 -26 237 -1 265 9 10 21 18 27 18 6 0 223
-86 481 -191z"/>
</g>
</svg>
